<svg width="239" height="26" viewBox="0 0 239 26" fill="none" xmlns="http://www.w3.org/2000/svg">
<path d="M68.3409 10.6421C68.0171 8.23013 66.0739 6.73865 62.7671 6.73865C59.4176 6.73865 57.2102 8.28979 57.2188 10.8125C57.2102 12.7727 58.446 14.0426 61.0028 14.554L63.2699 15.0057C64.4119 15.2358 64.9318 15.6534 64.9489 16.3097C64.9318 17.0852 64.0881 17.6392 62.8182 17.6392C61.5227 17.6392 60.6619 17.0852 60.4403 16.0199L56.8693 16.2074C57.2102 18.7131 59.3409 20.2557 62.8097 20.2557C66.2017 20.2557 68.6307 18.5256 68.6392 15.9432C68.6307 14.0512 67.3949 12.9176 64.8551 12.3977L62.4858 11.9205C61.2671 11.6563 60.8153 11.2387 60.8239 10.608C60.8153 9.82388 61.7017 9.31251 62.8267 9.31251C64.0881 9.31251 64.8381 10.0029 65.0171 10.8466L68.3409 10.6421Z" fill="#F8F8F8"/>
<path d="M70.9254 24.9091H74.5561V17.9034H74.6669C75.1698 18.9943 76.2692 20.2131 78.3828 20.2131C81.3658 20.2131 83.6925 17.8523 83.6925 13.4716C83.6925 8.97161 81.2635 6.73865 78.3913 6.73865C76.201 6.73865 75.1527 8.04263 74.6669 9.10797H74.505V6.9091H70.9254V24.9091ZM74.4794 13.4546C74.4794 11.1193 75.468 9.62786 77.2323 9.62786C79.0305 9.62786 79.9851 11.1875 79.9851 13.4546C79.9851 15.7387 79.0135 17.3239 77.2323 17.3239C75.4851 17.3239 74.4794 15.7898 74.4794 13.4546Z" fill="#F8F8F8"/>
<path d="M89.8459 20.2472C91.7805 20.2472 93.0334 19.4034 93.6726 18.1847H93.7749V20H97.218V11.1705C97.218 8.05115 94.576 6.73865 91.6612 6.73865C88.5249 6.73865 86.4624 8.23865 85.9595 10.625L89.3175 10.8977C89.5646 10.0284 90.3402 9.38922 91.6442 9.38922C92.88 9.38922 93.5874 10.0114 93.5874 11.0852V11.1364C93.5874 11.9801 92.6925 12.0909 90.4169 12.3125C87.826 12.5512 85.4993 13.4205 85.4993 16.3438C85.4993 18.9347 87.3487 20.2472 89.8459 20.2472ZM90.8857 17.7415C89.7692 17.7415 88.968 17.2216 88.968 16.2244C88.968 15.2017 89.8118 14.6989 91.0902 14.5199C91.8828 14.4091 93.1783 14.2216 93.6129 13.9318V15.321C93.6129 16.6932 92.4794 17.7415 90.8857 17.7415Z" fill="#F8F8F8"/>
<path d="M105.95 20.2557C109.435 20.2557 111.626 18.2102 111.796 15.2017H108.37C108.157 16.5994 107.237 17.3835 105.992 17.3835C104.296 17.3835 103.197 15.9602 103.197 13.4546C103.197 10.983 104.305 9.5682 105.992 9.5682C107.322 9.5682 108.174 10.446 108.37 11.75H111.796C111.643 8.72445 109.35 6.73865 105.933 6.73865C101.961 6.73865 99.5064 9.49149 99.5064 13.5057C99.5064 17.4858 101.918 20.2557 105.95 20.2557Z" fill="#F8F8F8"/>
<path d="M120.087 20.2557C123.325 20.2557 125.507 18.679 126.018 16.25L122.661 16.0284C122.294 17.0256 121.357 17.5455 120.146 17.5455C118.331 17.5455 117.18 16.3438 117.18 14.3921V14.3835H126.095V13.3864C126.095 8.93752 123.402 6.73865 119.942 6.73865C116.089 6.73865 113.592 9.47445 113.592 13.5142C113.592 17.6648 116.055 20.2557 120.087 20.2557ZM117.18 12.1335C117.257 10.6421 118.391 9.44888 120.001 9.44888C121.578 9.44888 122.669 10.5739 122.678 12.1335H117.18Z" fill="#F8F8F8"/>
<path d="M135.428 6.9091H132.964V3.77274H129.334V6.9091H127.544V9.63638H129.334V16.4546C129.317 19.0199 131.064 20.2898 133.697 20.179C134.635 20.1449 135.3 19.9574 135.666 19.8381L135.095 17.1364C134.916 17.1705 134.533 17.2557 134.192 17.2557C133.467 17.2557 132.964 16.983 132.964 15.9773V9.63638H135.428V6.9091Z" fill="#F8F8F8"/>
<path d="M137.793 20H141.423V12.5938C141.423 10.983 142.599 9.87502 144.202 9.87502C144.705 9.87502 145.395 9.96024 145.736 10.071V6.84945C145.412 6.77274 144.96 6.7216 144.594 6.7216C143.128 6.7216 141.926 7.57388 141.449 9.1932H141.313V6.9091H137.793V20Z" fill="#F8F8F8"/>
<path d="M150.971 20.2472C152.906 20.2472 154.158 19.4034 154.798 18.1847H154.9V20H158.343V11.1705C158.343 8.05115 155.701 6.73865 152.786 6.73865C149.65 6.73865 147.587 8.23865 147.085 10.625L150.442 10.8977C150.69 10.0284 151.465 9.38922 152.769 9.38922C154.005 9.38922 154.712 10.0114 154.712 11.0852V11.1364C154.712 11.9801 153.817 12.0909 151.542 12.3125C148.951 12.5512 146.624 13.4205 146.624 16.3438C146.624 18.9347 148.474 20.2472 150.971 20.2472ZM152.011 17.7415C150.894 17.7415 150.093 17.2216 150.093 16.2244C150.093 15.2017 150.937 14.6989 152.215 14.5199C153.008 14.4091 154.303 14.2216 154.738 13.9318V15.321C154.738 16.6932 153.604 17.7415 152.011 17.7415Z" fill="#F8F8F8"/>
<path d="M172.896 6.9091H169.052L166.342 16.2756H166.205L163.487 6.9091H159.651L164.228 20H168.319L172.896 6.9091Z" fill="#F8F8F8"/>
<path d="M180.274 20.2557C183.513 20.2557 185.695 18.679 186.206 16.25L182.848 16.0284C182.482 17.0256 181.544 17.5455 180.334 17.5455C178.518 17.5455 177.368 16.3438 177.368 14.3921V14.3835H186.283V13.3864C186.283 8.93752 183.59 6.73865 180.129 6.73865C176.277 6.73865 173.78 9.47445 173.78 13.5142C173.78 17.6648 176.243 20.2557 180.274 20.2557ZM177.368 12.1335C177.445 10.6421 178.578 9.44888 180.189 9.44888C181.766 9.44888 182.857 10.5739 182.865 12.1335H177.368Z" fill="#F8F8F8"/>
<path d="M192.283 2.54547H188.652V20H192.283V2.54547Z" fill="#F8F8F8"/>
<path d="M195.191 20H198.822V6.9091H195.191V20ZM197.015 5.2216C198.097 5.2216 198.984 4.3949 198.984 3.3807C198.984 2.37501 198.097 1.54831 197.015 1.54831C195.941 1.54831 195.055 2.37501 195.055 3.3807C195.055 4.3949 195.941 5.2216 197.015 5.2216Z" fill="#F8F8F8"/>
<path d="M205.361 12.4318C205.369 10.7443 206.375 9.7557 207.841 9.7557C209.298 9.7557 210.176 10.7102 210.168 12.3125V20H213.798V11.6648C213.798 8.61365 212.009 6.73865 209.281 6.73865C207.338 6.73865 205.932 7.6932 205.344 9.21876H205.19V6.9091H201.73V20H205.361V12.4318Z" fill="#F8F8F8"/>
<path d="M222.558 25.1818C226.299 25.1818 228.958 23.4773 228.958 20.1279V6.9091H225.353V9.10797H225.217C224.731 8.04263 223.665 6.73865 221.475 6.73865C218.603 6.73865 216.174 8.97161 216.174 13.429C216.174 17.7841 218.535 19.8125 221.484 19.8125C223.572 19.8125 224.739 18.7642 225.217 17.6818H225.37V20.0767C225.37 21.875 224.219 22.5739 222.643 22.5739C221.04 22.5739 220.231 21.875 219.933 21.0824L216.575 21.5341C217.009 23.5966 219.029 25.1818 222.558 25.1818ZM222.634 17.0852C220.853 17.0852 219.881 15.6705 219.881 13.4119C219.881 11.1875 220.836 9.62786 222.634 9.62786C224.398 9.62786 225.387 11.1193 225.387 13.4119C225.387 15.7216 224.381 17.0852 222.634 17.0852Z" fill="#F8F8F8"/>
<path d="M236.571 20.2216C237.662 20.2216 238.608 19.3097 238.616 18.1761C238.608 17.0597 237.662 16.1477 236.571 16.1477C235.446 16.1477 234.517 17.0597 234.526 18.1761C234.517 19.3097 235.446 20.2216 236.571 20.2216Z" fill="#FF57B2"/>
<path d="M9.88103 0L0 11.5691L9.88103 23.1363L12.2174 19.4384L5.55897 11.5671L12.2174 3.69588L9.88103 0ZM14.2051 22.86H18.5415L25.4359 0.21311H21.0974L14.2051 22.86ZM30.119 0L27.7826 3.69785L34.441 11.5691L27.7826 19.4404L30.119 23.1382L40 11.5711L30.119 0Z" fill="#FF57B2"/>
</svg>
